PathFileType	4	(X/Y/Z)	C:/Users/beibeiliu/ov580/test_trc/User3\sequence.30_training_dense_left.trc
DataRate	CameraRate	NumFrames	NumMarkers	Units	OrigDataRate	OrigDataStartFrame	OrigNumFrames
120	120	13	19	mm	120	25	99
Frame#	Time	ThumbCMC			ThumbMCP			ThumbIP			ThumbTip			IndexMCP			IndexPIP			IndexTip			MiddleMCP			MiddlePIP			MiddleTip			RingMCP			RingPIP			RingTip			PinkyMCP			PinkyPIP			PinkyTip			BackHand1			BackHand2			BackHand3	
		X0	Y0	Z0	X1	Y1	Z1	X2	Y2	Z2	X3	Y3	Z3	X4	Y4	Z4	X5	Y5	Z5	X6	Y6	Z6	X7	Y7	Z7	X8	Y8	Z8	X9	Y9	Z9	X10	Y10	Z10	X11	Y11	Z11	X12	Y12	Z12	X13	Y13	Z13	X14	Y14	Z14	X15	Y15	Z15	X16	Y16	Z16	X17	Y17	Z17	X18	Y18	Z18	
24	0.2	-128.743	-27.1327	26.1704	-102.553	-51.3295	18.4794	-84.3164	-65.45	10.3405	-63.4967	-73.5828	1.57869	-122.433	-63.4579	-37.3492	-103.095	-77.4722	-43.6867	-82.2584	-92.0643	-50.8158	-136.24	-84.5207	-35.2711	-116.096	-101.779	-44.3145	-91.2012	-122.044	-54.949	-146.826	-101.143	-20.1411	-129.948	-114.886	-29.2041	-113.582	-132.437	-34.3757	-154.765	-110.264	-2.52197	-143.841	-123.452	-4.62457	-128.288	-136.834	-13.9021	-181.843	-61.3265	6.89867	-192.43	-52.1791	33.4631	-170.993	-31.979	13.1514	
25	0.208333	-146.125	-16.657	27.246	-112.348	-26.8958	18.4933	-85.7225	-35.2562	4.47903	-67.6337	-36.6047	-1.26545	-126.575	-54.2079	-37.0831	-101.446	-58.7976	-44.182	-79.2777	-65.3736	-49.9805	-131.999	-75.5443	-34.0723	-107.058	-82.4046	-44.0326	-79.2983	-93.796	-50.7529	-137.352	-93.3459	-16.3126	-115.117	-103.753	-25.0959	-92.6247	-115.067	-30.9831	-141.501	-101.421	2.19231	-124.048	-112.306	-1.06412	-106.211	-122.407	-6.41041	-183.91	-67.4406	15.524	-194.352	-53.0886	35.0582	-181.006	-32.4758	12.9978	
26	0.216667	-159.649	-4.43797	20.828	-125.611	-7.44046	10.9609	-101.297	-10.9549	-2.53623	-81.758	-10.1215	-11.1284	-137.268	-34.6461	-38.6583	-111.944	-37.6595	-45.8829	-89.7809	-35.8552	-52.1891	-131.516	-63.9754	-33.3947	-108.895	-59.744	-45.0155	-81.6633	-60.8683	-56.0968	-131.224	-76.1853	-19.5713	-107.919	-80.3009	-28.6408	-83.1475	-83.5101	-37.5439	-132.343	-89.3434	6.20431	-110.582	-91.1425	-2.80135	-92.7985	-99.0648	-7.67721	-177.564	-69.2012	14.6046	-195.296	-58.7847	42.3682	-189.219	-32.7868	11.7492	
27	0.225	-174.081	-4.79673	20.3475	-142.899	5.82428	6.77493	-117.147	8.66566	-14.2702	-100.415	16.2238	-23.8974	-147.628	-31.2648	-40.2447	-123.309	-19.5979	-54.1153	-101.363	-17.2139	-59.5381	-135.962	-50.5174	-39.8232	-112.679	-47.7518	-51.5448	-86.3783	-37.1892	-68.8023	-129.903	-67.5467	-20.1507	-105.537	-64.2341	-34.0617	-85.439	-62.5391	-43.0112	-124.438	-78.3036	4.03093	-107.681	-74.2683	-5.28049	-83.9439	-73.9059	-13.4315	-175.268	-64.517	15.3296	-188.374	-61.3553	44.2169	-192.747	-39.4028	11.5965	
28	0.233333	-185.771	-6.38787	16.3606	-159.131	3.99721	3.57338	-138.633	13.9445	-18.2856	-124.484	22.5522	-31.0418	-158.855	-29.6158	-46.0111	-140.42	-17.6093	-58.3593	-116.74	-4.66427	-70.8422	-147.676	-48.0632	-41.7469	-124.663	-37.988	-61.25	-103.586	-27.6057	-74.1519	-131.958	-59.4498	-27.7373	-113.699	-53.0763	-44.5017	-94.8034	-46.2896	-55.9022	-124.192	-67.9903	-3.94958	-102.466	-62.567	-13.6974	-83.076	-57.6337	-24.3331	-169.817	-71.7568	13.8252	-185.598	-65.5563	45.2732	-198.458	-47.6323	15.483	
29	0.241667	-197.334	-14.9112	21.1588	-173.651	-1.74653	-0.718296	-161.978	15.7409	-23.1061	-149.063	25.2628	-37.6942	-173.15	-37.0354	-45.6876	-159.649	-19.2546	-63.5165	-143.04	-0.784182	-77.5758	-153.534	-54.1327	-45.1037	-138.693	-40.1416	-64.9197	-120.065	-22.3571	-86.2161	-140.121	-59.7316	-30.6818	-123.504	-51.4917	-48.2238	-104.486	-43.1018	-62.1331	-128.161	-63.7374	-9.14279	-108.22	-56.568	-21.8234	-92.1979	-47.6122	-34.331	-174.487	-72.8605	16.3567	-182.15	-70.6791	43.7628	-203.021	-56.4662	18.0921	
30	0.25	-203.692	-27.2309	21.4222	-189.119	-5.89887	-2.91825	-174.588	5.09249	-21.5801	-164.12	16.3196	-41.1042	-185.372	-40.1757	-48.4753	-172.439	-27.3838	-61.507	-156.34	-7.32218	-78.6627	-163.295	-59.6385	-42.0318	-149.137	-45.3494	-65.4651	-134.758	-28.0069	-84.718	-145.841	-64.5379	-32.2112	-129.409	-55.038	-49.4454	-118.371	-41.492	-68.3013	-130.265	-64.9781	-10.323	-115.946	-56.5037	-20.6677	-98.1492	-47.1251	-38.5711	-172.137	-83.2044	16.6049	-181.341	-78.9254	47.7764	-204.735	-67.4197	21.0463	
31	0.258333	-210.369	-33.3461	27.0898	-196.79	-11.2117	1.08707	-183.958	-2.30956	-19.8482	-177.003	11.3857	-38.554	-188.823	-49.0701	-44.1792	-182.184	-32.0582	-59.8849	-169.245	-13.9606	-76.1974	-169.022	-63.6807	-43.7077	-157.563	-49.411	-64.1846	-145.517	-32.4787	-87.486	-149.435	-70.0652	-26.0114	-138.953	-60.7727	-44.9517	-124.071	-47.6727	-66.0628	-133.997	-70.1772	-4.61866	-117.929	-60.3466	-19.7823	-106.569	-53.214	-32.9947	-176.041	-88.0821	20.9257	-184.78	-82.9564	51.701	-210.427	-71.288	23.3215	
32	0.266667	-210.492	-38.242	29.7671	-197.637	-18.8882	6.14042	-186.82	-5.32836	-18.5494	-176.877	2.11923	-36.0883	-194.856	-55.9504	-37.0014	-182.012	-38.4506	-56.5832	-169.282	-22.306	-72.6548	-169.833	-71.2646	-36.0834	-159.036	-58.6251	-59.449	-147.671	-39.7024	-82.755	-153.448	-75.5588	-24.1656	-139.571	-67.4819	-41.3838	-125.898	-54.4021	-61.0345	-133.037	-74.6476	-2.41336	-122.976	-64.9498	-18.8965	-106.966	-56.4955	-34.1959	-175.132	-93.3204	24.324	-184.498	-87.5431	55.6981	-205.253	-77.9075	30.7585	
33	0.275	-211.801	-38.538	33.2262	-196.309	-20.8035	7.10745	-183.41	-9.69967	-20.0316	-175.704	-1.69118	-33.0398	-190.066	-59.9748	-33.6414	-179.555	-43.9931	-53.7881	-168.106	-26.3909	-70.2697	-170.853	-72.9051	-36.029	-159.474	-61.8261	-56.4999	-148.047	-44.7732	-78.4042	-152.922	-77.7954	-23.3353	-139.942	-70.2209	-39.4404	-124.662	-57.3001	-60.6511	-131.549	-78.6932	-3.5159	-122.539	-68.5542	-17.5089	-105.954	-63.4116	-30.1257	-178.256	-94.6848	26.313	-183.342	-91.8788	54.828	-206.478	-81.6796	32.4145	
34	0.283333	-209.965	-35.8558	36.8269	-195.68	-16.5652	10.8819	-183.42	-8.85045	-14.0123	-173.229	-2.89647	-33.5128	-196.862	-57.6704	-31.5791	-181.398	-41.8973	-54.961	-170.889	-30.6729	-68.6948	-177.207	-71.897	-36.3619	-163.351	-59.9942	-57.6616	-149.618	-41.4413	-80.5302	-158.127	-81.1283	-21.41	-147.763	-71.3749	-43.892	-130.726	-59.9293	-62.6863	-140.612	-83.2735	0.212204	-126.971	-74.2087	-20.1854	-114.019	-66.4493	-35.9833	-183.867	-93.3502	27.8652	-187.285	-90.0877	60.4674	-209.214	-77.8326	35.0721	
35	0.291667	-208.95	-22.8708	42.0318	-192.55	-9.73454	11.7289	-180.642	-2.83657	-10.7486	-168.996	3.05845	-30.8991	-203.762	-47.1092	-30.9571	-189.906	-31.9029	-54.5417	-176.126	-23.4789	-67.9152	-182.775	-65.6188	-34.4568	-172.432	-51.2888	-56.4248	-157.629	-35.3097	-78.5297	-167.571	-76.7403	-21.4978	-155.718	-68.4391	-44.8736	-141.532	-57.9184	-61.7626	-149.326	-83.5181	-6.28613	-136.341	-76.179	-23.3592	-121.762	-70.0812	-35.5538	-191.128	-88.4144	27.7027	-193.471	-85.3871	60.1739	-214.459	-64.4906	39.6943	
36	0.3	-203.881	-12.5372	46.0286	-185.451	-2.3302	17.3423	-173.461	5.74335	-5.37888	-162.242	15.1037	-27.1406	-202.613	-38.0124	-26.7971	-190.93	-28.5082	-47.7837	-173.559	-19.1906	-65.6912	-191.78	-55.8236	-30.1237	-179.803	-44.0556	-52.6658	-157.338	-32.7016	-73.3309	-176.955	-70.7752	-18.4061	-164.898	-64.6641	-40.282	-145.195	-52.1116	-63.3881	-160.621	-79.8996	-6.46564	-147.788	-75.5252	-23.3093	-128.701	-70.9855	-39.2817	-196.535	-79.9468	33.2265	-199.992	-77.2561	60.932	-216.736	-52.659	42.7032	
